<svg width="107" height="54" viewBox="0 0 107 54" fill="none" xmlns="http://www.w3.org/2000/svg">
<path d="M44.2961 45.1112C27.5553 49.5531 0.516677 45.0135 0.276515 25.2311C0.0363538 5.44845 28.8933 17.2327 28.8933 17.2327L44.2961 45.1112Z" fill="#FFC250"/>
<path d="M8.41602 14.1319C20.0997 12.4234 28.9733 25.635 38.7909 39.4165C48.6084 53.198 74.1732 58.6606 90.5081 47.071C106.843 35.4815 113.756 15.1835 93.6998 3.07617C73.6433 -9.0312 61.1233 18.4563 43.8569 19.2119C26.5909 19.9675 26.4649 9.01535 8.41602 14.1319Z" fill="#FFD064"/>
<ellipse cx="92.0075" cy="25.847" rx="5.12766" ry="4.3756" fill="#FFE19D"/>
<ellipse cx="82.1797" cy="29.1287" rx="3.84575" ry="3.2817" fill="#FFE19D"/>
<ellipse cx="89.0168" cy="33.5042" rx="2.99114" ry="2.55244" fill="#FFE19D"/>
</svg>
