<svg width="64" height="53" viewBox="0 0 64 53" fill="none" xmlns="http://www.w3.org/2000/svg">
<path d="M9.16548 45.6477C10.4212 45.6477 11.4382 44.6307 11.4382 43.375C11.4382 42.1193 10.4212 41.1023 9.16548 41.1023C7.9098 41.1023 6.89276 42.1193 6.89276 43.375C6.89276 44.6307 7.9098 45.6477 9.16548 45.6477ZM9.16548 45.0852C8.21946 45.0852 7.45526 44.3182 7.45526 43.375C7.45526 42.4318 8.21946 41.6648 9.16548 41.6648C10.1087 41.6648 10.8729 42.4318 10.8729 43.375C10.8729 44.321 10.1087 45.0852 9.16548 45.0852ZM8.36151 44.3977H8.85014V43.6903H9.2706L9.62287 44.3977H10.1598L9.73935 43.5881C9.93253 43.4716 10.0803 43.2642 10.0803 42.9801C10.0803 42.5284 9.71378 42.3011 9.4098 42.3011H8.36151V44.3977ZM8.85014 43.3295V42.6619H9.25639C9.37855 42.6619 9.55185 42.7386 9.55185 42.9801C9.55185 43.2131 9.38423 43.3295 9.24787 43.3295H8.85014ZM14.5923 47H16.8224C18.1747 47 18.7855 46.3267 18.7855 45.4347C18.7855 44.5341 18.1548 44.0256 17.5781 43.9943V43.9375C18.1122 43.8011 18.5582 43.4375 18.5582 42.7102C18.5582 41.8494 17.9616 41.1818 16.723 41.1818H14.5923V47ZM15.4702 46.2472V44.3835H16.7685C17.473 44.3835 17.9134 44.8381 17.9134 45.392C17.9134 45.8807 17.581 46.2472 16.7372 46.2472H15.4702ZM15.4702 43.6989V41.929H16.669C17.3651 41.929 17.6974 42.2955 17.6974 42.7784C17.6974 43.3409 17.2372 43.6989 16.6463 43.6989H15.4702ZM21.0284 47.0966C21.75 47.0966 22.1562 46.7301 22.3182 46.4034H22.3523V47H23.1818V44.1023C23.1818 42.8324 22.1818 42.5795 21.4886 42.5795C20.6989 42.5795 19.9716 42.8977 19.6875 43.6932L20.4858 43.875C20.6108 43.5653 20.929 43.267 21.5 43.267C22.0483 43.267 22.3295 43.554 22.3295 44.0483V44.0682C22.3295 44.3778 22.0114 44.3722 21.2273 44.4631C20.4006 44.5597 19.554 44.7756 19.554 45.767C19.554 46.625 20.1989 47.0966 21.0284 47.0966ZM21.2131 46.4148C20.733 46.4148 20.3864 46.1989 20.3864 45.7784C20.3864 45.3239 20.7898 45.1619 21.2812 45.0966C21.5568 45.0597 22.2102 44.9858 22.3324 44.8636V45.4261C22.3324 45.9432 21.9205 46.4148 21.2131 46.4148ZM26.3501 42.6364H25.4553V41.5909H24.6058V42.6364H23.9666V43.3182H24.6058V45.8949C24.603 46.6875 25.2081 47.071 25.8786 47.0568C26.1484 47.054 26.3303 47.0028 26.4297 46.9659L26.2763 46.2642C26.2195 46.2756 26.1143 46.3011 25.978 46.3011C25.7024 46.3011 25.4553 46.2102 25.4553 45.7188V43.3182H26.3501V42.6364ZM28.5597 47.0966C29.2812 47.0966 29.6875 46.7301 29.8494 46.4034H29.8835V47H30.7131V44.1023C30.7131 42.8324 29.7131 42.5795 29.0199 42.5795C28.2301 42.5795 27.5028 42.8977 27.2188 43.6932L28.017 43.875C28.142 43.5653 28.4602 43.267 29.0312 43.267C29.5795 43.267 29.8608 43.554 29.8608 44.0483V44.0682C29.8608 44.3778 29.5426 44.3722 28.7585 44.4631C27.9318 44.5597 27.0852 44.7756 27.0852 45.767C27.0852 46.625 27.7301 47.0966 28.5597 47.0966ZM28.7443 46.4148C28.2642 46.4148 27.9176 46.1989 27.9176 45.7784C27.9176 45.3239 28.321 45.1619 28.8125 45.0966C29.0881 45.0597 29.7415 44.9858 29.8636 44.8636V45.4261C29.8636 45.9432 29.4517 46.4148 28.7443 46.4148ZM31.9126 47H32.7422V46.321H32.8132C32.9666 46.5994 33.2791 47.0852 34.0746 47.0852C35.1314 47.0852 35.8984 46.2386 35.8984 44.8267C35.8984 43.4119 35.12 42.5795 34.0661 42.5795C33.2564 42.5795 32.9638 43.0739 32.8132 43.3438H32.7621V41.1818H31.9126V47ZM32.745 44.8182C32.745 43.9062 33.1428 43.3011 33.8842 43.3011C34.6541 43.3011 35.0405 43.9517 35.0405 44.8182C35.0405 45.6932 34.6428 46.3608 33.8842 46.3608C33.1541 46.3608 32.745 45.7358 32.745 44.8182ZM36.8523 47H37.7017V42.6364H36.8523V47ZM37.2812 41.9631C37.5739 41.9631 37.8182 41.7358 37.8182 41.4574C37.8182 41.179 37.5739 40.9489 37.2812 40.9489C36.9858 40.9489 36.7443 41.179 36.7443 41.4574C36.7443 41.7358 36.9858 41.9631 37.2812 41.9631ZM40.8814 42.6364H39.9865V41.5909H39.1371V42.6364H38.4979V43.3182H39.1371V45.8949C39.1342 46.6875 39.7393 47.071 40.4098 47.0568C40.6797 47.054 40.8615 47.0028 40.9609 46.9659L40.8075 46.2642C40.7507 46.2756 40.6456 46.3011 40.5092 46.3011C40.2337 46.3011 39.9865 46.2102 39.9865 45.7188V43.3182H40.8814V42.6364ZM43.9268 47H47.7564V46.2472H45.1371V46.2045L46.2933 44.9943C47.3587 43.9176 47.6626 43.4034 47.6626 42.7528C47.6626 41.8182 46.9013 41.1023 45.8047 41.1023C44.7166 41.1023 43.9212 41.8068 43.9212 42.8693H44.7592C44.7564 42.2443 45.1598 41.8352 45.7876 41.8352C46.3786 41.8352 46.8274 42.1989 46.8274 42.7784C46.8274 43.2926 46.5206 43.6619 45.8956 44.3239L43.9268 46.3636V47ZM50.8587 47.0966C52.2024 47.0966 52.9893 46 52.9893 44.0938C52.9893 42.2017 52.1911 41.1023 50.8587 41.1023C49.5234 41.1023 48.728 42.1989 48.7251 44.0938C48.7251 45.9972 49.5121 47.0938 50.8587 47.0966ZM50.8587 46.3381C50.0717 46.3381 49.5973 45.5483 49.5973 44.0938C49.6001 42.6449 50.0746 41.8466 50.8587 41.8466C51.6399 41.8466 52.1172 42.6449 52.1172 44.0938C52.1172 45.5483 51.6428 46.3381 50.8587 46.3381ZM53.9972 47H57.8267V46.2472H55.2074V46.2045L56.3636 44.9943C57.429 43.9176 57.733 43.4034 57.733 42.7528C57.733 41.8182 56.9716 41.1023 55.875 41.1023C54.7869 41.1023 53.9915 41.8068 53.9915 42.8693H54.8295C54.8267 42.2443 55.2301 41.8352 55.858 41.8352C56.4489 41.8352 56.8977 42.1989 56.8977 42.7784C56.8977 43.2926 56.5909 43.6619 55.9659 44.3239L53.9972 46.3636V47ZM60.929 47.0966C62.2727 47.0966 63.0597 46 63.0597 44.0938C63.0597 42.2017 62.2614 41.1023 60.929 41.1023C59.5938 41.1023 58.7983 42.1989 58.7955 44.0938C58.7955 45.9972 59.5824 47.0938 60.929 47.0966ZM60.929 46.3381C60.142 46.3381 59.6676 45.5483 59.6676 44.0938C59.6705 42.6449 60.1449 41.8466 60.929 41.8466C61.7102 41.8466 62.1875 42.6449 62.1875 44.0938C62.1875 45.5483 61.7131 46.3381 60.929 46.3381Z" fill="#FFE9D5"/>
<path d="M39.8906 24.2838C33.4673 26.281 23.0927 24.2399 23.0006 15.3449C22.9084 6.44983 33.9806 11.7485 33.9806 11.7485L39.8906 24.2838Z" fill="#FFC250"/>
<path d="M26.1237 10.3543C30.6066 9.58608 34.0114 15.5265 37.7783 21.7232C41.5452 27.92 51.3542 30.3762 57.6218 25.165C63.8894 19.9539 66.542 10.8271 58.8465 5.38317C51.1509 -0.0607896 46.3471 12.2987 39.7221 12.6385C33.0972 12.9782 33.0489 8.05367 26.1237 10.3543Z" fill="#FFD064"/>
<circle cx="58.1972" cy="15.6219" r="1.96745" fill="#FFE19D"/>
<circle cx="54.4263" cy="17.0974" r="1.47559" fill="#FFE19D"/>
<circle cx="57.0495" cy="19.0648" r="1.14768" fill="#FFE19D"/>
<g filter="url(#filter0_d)">
<path fill-rule="evenodd" clip-rule="evenodd" d="M8 27.0972C8 27.5958 8.40419 28 8.90278 28H24.6972C28.7304 28 32 24.7349 32 20.7071C32 16.7336 28.8178 13.5022 24.8596 13.416C25.064 12.7442 25.1739 12.0314 25.1739 11.2929C25.1739 7.26514 21.9043 4 17.8711 4L8.90278 4C8.40419 4 8 4.40419 8 4.90278L8 27.0972ZM17.8711 13.3786H13.2143L13.2143 9.20722L17.8711 9.20722C19.0246 9.20722 19.9596 10.141 19.9596 11.2929C19.9596 12.4448 19.0246 13.3786 17.8711 13.3786ZM24.6972 22.7928L13.2143 22.7928V18.6214H24.6972C25.8507 18.6214 26.7857 19.5552 26.7857 20.7071C26.7857 21.859 25.8507 22.7928 24.6972 22.7928Z" fill="white"/>
</g>
<defs>
<filter id="filter0_d" x="0" y="0" width="40" height="40" filterUnits="userSpaceOnUse" color-interpolation-filters="sRGB">
<feFlood flood-opacity="0" result="BackgroundImageFix"/>
<feColorMatrix in="SourceAlpha" type="matrix" values="0 0 0 0 0 0 0 0 0 0 0 0 0 0 0 0 0 0 127 0"/>
<feOffset dy="4"/>
<feGaussianBlur stdDeviation="4"/>
<feColorMatrix type="matrix" values="0 0 0 0 0 0 0 0 0 0 0 0 0 0 0 0 0 0 0.16 0"/>
<feBlend mode="normal" in2="BackgroundImageFix" result="effect1_dropShadow"/>
<feBlend mode="normal" in="SourceGraphic" in2="effect1_dropShadow" result="shape"/>
</filter>
</defs>
</svg>
