<svg width="174" height="28" viewBox="0 0 174 28" fill="none" xmlns="http://www.w3.org/2000/svg">
<path d="M19.4633 23.3995C12.0616 25.7036 0.106843 23.3489 0.000659127 13.0876C-0.105525 2.8262 12.6532 8.93879 12.6532 8.93879L19.4633 23.3995Z" fill="#FFC250"/>
<path d="M3.59949 7.33031C8.76529 6.44413 12.6886 13.2971 17.0293 20.4456C21.37 27.5942 32.6731 30.4277 39.8954 24.4161C47.1176 18.4045 50.1742 7.87582 41.3065 1.59563C32.4389 -4.68455 26.9033 9.57344 19.2692 9.96536C11.6353 10.3573 11.5795 4.67633 3.59949 7.33031Z" fill="#FFD064"/>
<ellipse cx="40.5584" cy="13.407" rx="2.26712" ry="2.26965" fill="#FFE19D"/>
<ellipse cx="36.213" cy="15.1094" rx="1.70034" ry="1.70225" fill="#FFE19D"/>
<ellipse cx="39.2358" cy="17.3789" rx="1.32249" ry="1.32396" fill="#FFE19D"/>
<path d="M58.8935 23.3566V3.99762H66.6648C68.6744 3.99762 70.2047 4.46777 71.2556 5.40806C72.325 6.32992 72.8596 7.51911 72.8596 8.97564C72.8596 10.1925 72.5278 11.1697 71.864 11.9071C71.2187 12.6262 70.4259 13.1148 69.4856 13.3729C70.5919 13.5941 71.5045 14.1472 72.2235 15.0322C72.9426 15.8988 73.3021 16.9128 73.3021 18.0743C73.3021 19.6046 72.749 20.8676 71.6428 21.8632C70.5366 22.8588 68.9694 23.3566 66.9413 23.3566H58.8935ZM62.4335 12.1284H66.1393C67.1349 12.1284 67.9001 11.8979 68.4347 11.437C68.9694 10.9761 69.2367 10.3215 69.2367 9.47344C69.2367 8.66221 68.9694 8.02613 68.4347 7.5652C67.9185 7.08584 67.1349 6.84615 66.084 6.84615H62.4335V12.1284ZM62.4335 20.4804H66.3882C67.4391 20.4804 68.2504 20.2407 68.8219 19.7613C69.4119 19.2635 69.7069 18.5721 69.7069 17.6872C69.7069 16.7837 69.4027 16.0739 68.7943 15.5577C68.1858 15.0414 67.3654 14.7833 66.3329 14.7833H62.4335V20.4804ZM79.8803 23.6884C78.7003 23.6884 77.7323 23.5041 76.9764 23.1353C76.2205 22.7481 75.6582 22.2411 75.2894 21.6143C74.9207 20.9874 74.7363 20.296 74.7363 19.5401C74.7363 18.2679 75.2341 17.2355 76.2297 16.4427C77.2253 15.6499 78.7187 15.2535 80.7099 15.2535H84.1945V14.9216C84.1945 13.9813 83.9272 13.2899 83.3925 12.8474C82.8579 12.4049 82.1941 12.1837 81.4013 12.1837C80.6823 12.1837 80.0554 12.3588 79.5207 12.7091C78.9861 13.041 78.6542 13.5388 78.5251 14.2026H75.0682C75.1604 13.2069 75.4922 12.3404 76.0638 11.6029C76.6538 10.8654 77.4097 10.3031 78.3316 9.91593C79.2534 9.51031 80.2859 9.30751 81.429 9.30751C83.3833 9.30751 84.9228 9.79609 86.0475 10.7733C87.1721 11.7504 87.7345 13.1332 87.7345 14.9216V23.3566H84.72L84.3881 21.1441C83.9825 21.8816 83.411 22.49 82.6735 22.9694C81.9544 23.4488 81.0234 23.6884 79.8803 23.6884ZM80.6823 20.9229C81.6963 20.9229 82.4799 20.591 83.033 19.9273C83.6046 19.2635 83.9641 18.4431 84.1116 17.4659H81.0971C80.1568 17.4659 79.4839 17.6411 79.0783 17.9914C78.6726 18.3232 78.4698 18.7381 78.4698 19.2359C78.4698 19.7706 78.6726 20.1854 79.0783 20.4804C79.4839 20.7754 80.0185 20.9229 80.6823 20.9229ZM95.9292 23.3566C94.4911 23.3566 93.3388 23.0063 92.4722 22.3057C91.6057 21.605 91.1724 20.3605 91.1724 18.5721V12.5985H88.8217V9.63937H91.1724L91.5872 5.96117H94.7123V9.63937H98.4182V12.5985H94.7123V18.5998C94.7123 19.2635 94.8506 19.7245 95.1272 19.9826C95.4222 20.2223 95.92 20.3421 96.6206 20.3421H98.3352V23.3566H95.9292ZM105.08 23.6884C103.9 23.6884 102.932 23.5041 102.177 23.1353C101.421 22.7481 100.858 22.2411 100.49 21.6143C100.121 20.9874 99.9364 20.296 99.9364 19.5401C99.9364 18.2679 100.434 17.2355 101.43 16.4427C102.425 15.6499 103.919 15.2535 105.91 15.2535H109.395V14.9216C109.395 13.9813 109.127 13.2899 108.593 12.8474C108.058 12.4049 107.394 12.1837 106.601 12.1837C105.882 12.1837 105.256 12.3588 104.721 12.7091C104.186 13.041 103.854 13.5388 103.725 14.2026H100.268C100.36 13.2069 100.692 12.3404 101.264 11.6029C101.854 10.8654 102.61 10.3031 103.532 9.91593C104.454 9.51031 105.486 9.30751 106.629 9.30751C108.583 9.30751 110.123 9.79609 111.248 10.7733C112.372 11.7504 112.935 13.1332 112.935 14.9216V23.3566H109.92L109.588 21.1441C109.183 21.8816 108.611 22.49 107.874 22.9694C107.155 23.4488 106.223 23.6884 105.08 23.6884ZM105.882 20.9229C106.896 20.9229 107.68 20.591 108.233 19.9273C108.805 19.2635 109.164 18.4431 109.312 17.4659H106.297C105.357 17.4659 104.684 17.6411 104.278 17.9914C103.873 18.3232 103.67 18.7381 103.67 19.2359C103.67 19.7706 103.873 20.1854 104.278 20.4804C104.684 20.7754 105.219 20.9229 105.882 20.9229ZM121.129 23.3566C119.691 23.3566 118.539 23.0063 117.672 22.3057C116.806 21.605 116.373 20.3605 116.373 18.5721V12.5985H114.022V9.63937H116.373L116.787 5.96117H119.912V9.63937H123.618V12.5985H119.912V18.5998C119.912 19.2635 120.051 19.7245 120.327 19.9826C120.622 20.2223 121.12 20.3421 121.821 20.3421H123.535V23.3566H121.129ZM130.28 23.6884C129.101 23.6884 128.133 23.5041 127.377 23.1353C126.621 22.7481 126.058 22.2411 125.69 21.6143C125.321 20.9874 125.137 20.296 125.137 19.5401C125.137 18.2679 125.634 17.2355 126.63 16.4427C127.626 15.6499 129.119 15.2535 131.11 15.2535H134.595V14.9216C134.595 13.9813 134.327 13.2899 133.793 12.8474C133.258 12.4049 132.594 12.1837 131.802 12.1837C131.083 12.1837 130.456 12.3588 129.921 12.7091C129.386 13.041 129.054 13.5388 128.925 14.2026H125.468C125.561 13.2069 125.892 12.3404 126.464 11.6029C127.054 10.8654 127.81 10.3031 128.732 9.91593C129.654 9.51031 130.686 9.30751 131.829 9.30751C133.784 9.30751 135.323 9.79609 136.448 10.7733C137.572 11.7504 138.135 13.1332 138.135 14.9216V23.3566H135.12L134.788 21.1441C134.383 21.8816 133.811 22.49 133.074 22.9694C132.355 23.4488 131.424 23.6884 130.28 23.6884ZM131.083 20.9229C132.097 20.9229 132.88 20.591 133.433 19.9273C134.005 19.2635 134.364 18.4431 134.512 17.4659H131.497C130.557 17.4659 129.884 17.6411 129.478 17.9914C129.073 18.3232 128.87 18.7381 128.87 19.2359C128.87 19.7706 129.073 20.1854 129.478 20.4804C129.884 20.7754 130.419 20.9229 131.083 20.9229ZM148.537 23.6884C147.505 23.6884 146.601 23.4948 145.827 23.1077C145.053 22.7205 144.426 22.1766 143.946 21.476L143.559 23.3566H140.407V3.44451H143.946V11.6029C144.389 10.9945 144.97 10.4598 145.689 9.9989C146.426 9.53797 147.376 9.30751 148.537 9.30751C149.828 9.30751 150.98 9.62094 151.994 10.2478C153.008 10.8747 153.81 11.732 154.4 12.8198C154.99 13.9076 155.285 15.1428 155.285 16.5256C155.285 17.9084 154.99 19.1437 154.4 20.2315C153.81 21.3008 153.008 22.1489 151.994 22.7758C150.98 23.3842 149.828 23.6884 148.537 23.6884ZM147.791 20.591C148.915 20.591 149.846 20.213 150.584 19.4571C151.321 18.7012 151.69 17.724 151.69 16.5256C151.69 15.3272 151.321 14.3408 150.584 13.5665C149.846 12.7921 148.915 12.4049 147.791 12.4049C146.648 12.4049 145.707 12.7921 144.97 13.5665C144.251 14.3224 143.891 15.2996 143.891 16.498C143.891 17.6964 144.251 18.6828 144.97 19.4571C145.707 20.213 146.648 20.591 147.791 20.591ZM159.25 7.50989C158.604 7.50989 158.07 7.3163 157.646 6.92912C157.24 6.54194 157.037 6.05336 157.037 5.46337C157.037 4.87339 157.24 4.39402 157.646 4.02528C158.07 3.6381 158.604 3.44451 159.25 3.44451C159.895 3.44451 160.42 3.6381 160.826 4.02528C161.25 4.39402 161.462 4.87339 161.462 5.46337C161.462 6.05336 161.25 6.54194 160.826 6.92912C160.42 7.3163 159.895 7.50989 159.25 7.50989ZM157.48 23.3566V9.63937H161.02V23.3566H157.48ZM169.72 23.3566C168.282 23.3566 167.13 23.0063 166.263 22.3057C165.397 21.605 164.963 20.3605 164.963 18.5721V12.5985H162.613V9.63937H164.963L165.378 5.96117H168.503V9.63937H172.209V12.5985H168.503V18.5998C168.503 19.2635 168.641 19.7245 168.918 19.9826C169.213 20.2223 169.711 20.3421 170.411 20.3421H172.126V23.3566H169.72Z" fill="#F7931A"/>
</svg>
